<?xml version="1.0" standalone="no"?>
<!DOCTYPE svg PUBLIC "-//W3C//DTD SVG 20010904//EN"
 "http://www.w3.org/TR/2001/REC-SVG-20010904/DTD/svg10.dtd">
<svg version="1.0" xmlns="http://www.w3.org/2000/svg"
 width="78.000000pt" height="78.000000pt" viewBox="0 0 78.000000 78.000000"
 preserveAspectRatio="xMidYMid meet">
<metadata>
Created by potrace 1.14, written by Peter Selinger 2001-2017
</metadata>
<g transform="translate(0.000000,78.000000) scale(0.100000,-0.100000)"
fill="#000000" stroke="none">
<path d="M255 721 c-49 -12 -82 -39 -99 -82 -21 -52 -20 -57 5 -25 36 46 66
55 175 53 88 -2 104 -5 146 -30 93 -54 128 -170 80 -264 -40 -77 -108 -113
-216 -113 l-71 0 -3 -57 c-2 -45 -7 -62 -24 -76 -12 -10 -28 -16 -37 -15 -13
3 -15 28 -16 183 0 99 4 193 9 208 11 37 30 43 124 41 69 -2 79 -5 99 -29 26
-29 28 -43 12 -78 -13 -28 -48 -47 -84 -47 -22 0 -25 4 -25 40 0 37 -28 80
-52 80 -4 0 -8 -40 -8 -89 l0 -89 74 2 c86 4 123 24 151 82 30 63 3 139 -59
171 -45 23 -204 23 -240 0 -56 -37 -58 -49 -58 -279 0 -117 0 -224 1 -237 1
-22 3 -23 62 -19 56 4 65 8 95 41 25 27 34 46 34 72 0 34 1 35 38 35 155 0
281 127 274 277 -3 94 -72 192 -159 228 -42 18 -181 27 -228 16z"/>
</g>
</svg>
